<svg id="eG6zntyHIOE1" xmlns="http://www.w3.org/2000/svg" xmlns:xlink="http://www.w3.org/1999/xlink" viewBox="0 -960 960 960" shape-rendering="geometricPrecision" text-rendering="geometricPrecision"><path d="M220,-40q-24.75,0-42.375-17.625t-17.625-42.375v-760q0-24.75,17.625-42.375t42.375-17.625h440q24.75,0,42.375,17.625t17.625,42.375v146h-60v-56h-440v580h440v-56h60v146q0,24.75-17.625,42.375t-42.375,17.625h-440Zm0-90v30h440v-30h-440Zm378-190L428,-490l43-42l127,127l239-239l43,42-282,282ZM220,-830h440v-30h-440v30Zm0,0v-30v30Zm0,700v30-30Z" fill="#1c9104"/></svg>
